<?xml version="1.0" encoding="UTF-8" standalone="no"?><!DOCTYPE svg PUBLIC "-//W3C//DTD SVG 1.1//EN" "http://www.w3.org/Graphics/SVG/1.1/DTD/svg11.dtd"><svg width="100%" height="100%" viewBox="0 0 1024 1024" version="1.1" xmlns="http://www.w3.org/2000/svg" xmlns:xlink="http://www.w3.org/1999/xlink" xml:space="preserve" xmlns:serif="http://www.serif.com/" style="fill-rule:evenodd;clip-rule:evenodd;stroke-linejoin:round;stroke-miterlimit:2;"><g id="Gemini_Generated_Image_wiyhblwiyhblwiyh.png"><path d="M764.887,306.352c-0.603,6.102 -6.107,61.76 -27.956,71.369c-9.325,4.101 -12.618,-10.456 -15.668,-4.636c-1.98,3.779 -16.395,41.173 -55.319,56.233c-30.423,11.771 -14.474,-11.916 -14.556,-24.704c-0.113,-17.555 -16.144,-21.749 -50.397,-30.768c-68.457,-18.026 -75.161,10.709 -123.198,-17.845c-10.468,-6.222 1.106,31.498 1.908,34.111c1.734,5.651 -4.642,10.232 20.312,28.518c7.862,5.761 8.886,5.191 11.312,14.87c2.368,9.443 37.875,11.547 42.985,29.021c2.282,7.804 43.736,16.325 45.195,41.788c0.408,7.115 40.754,28.909 35.559,60.667c-0.115,0.702 6.864,15.85 9.083,16.286c2.163,0.425 2.133,-0.725 27.464,-2.262c4.284,-0.26 23.397,-25.294 57.63,-11.959c6.079,2.368 21.945,-20.104 21.206,-43.919c-0.519,-16.718 -19.28,-105.57 73.103,-141.236c41.67,-16.087 122.261,-6.818 102.138,15.251c-10.845,11.895 -58.579,57.133 -58.662,60.973c-0.037,1.695 -0.408,18.885 1.716,21.121c32.605,34.333 32.974,34.724 37.041,34.843c26.594,0.782 23.876,-7.257 42.839,-26.134c31.454,-31.31 44.63,-51.172 51.277,-27.033c14.336,52.058 3.343,163.649 -125.934,160.852c-52.157,-1.128 -50.375,10.146 -113.172,74.286c-38.761,39.59 -40.894,39.658 -38.976,43.948c0.901,2.016 8.278,18.514 3.445,27.385c-7.363,13.516 -22.587,5.173 -18.702,20.115c2.196,8.448 -1.624,26.357 -23.34,27.233c-10.464,0.422 -3.903,7.001 -9.262,15.833c-6.713,11.064 -21.071,16.284 -36.665,7.043c-8.311,-4.926 -8.714,-1.276 -15.366,5.697c-40.001,41.928 -45.408,42.266 -42.521,74.268c7.976,88.416 -96.438,113.186 -132.602,91.812c-9.967,-5.891 10.157,-22.569 34.942,-49.055c17.021,-18.189 17.573,-18.007 17.621,-19.681c0.053,-1.818 0.603,-20.831 -1.438,-22.69c-28.706,-26.151 -28.124,-27.378 -31.462,-27.41c-25.916,-0.247 -25.181,4.319 -43.062,22.968c-24.582,25.639 -37.302,48.38 -46.817,15.715c-11.683,-40.106 7.546,-93.585 48.279,-110.74c15.018,-6.325 -11.95,-1.405 -33.487,-19.429c-8.04,-6.729 -11.531,-20.743 -17.009,-7.028c-10.37,25.961 -30.338,3.276 -25.43,-32.002c0.834,-5.996 -9.529,-5.156 -3.77,-18.702c3.903,-9.181 8.517,-9.785 3.511,-16.478c-38.606,-51.612 -17.941,-77.041 -41.021,-71.031c-31.134,8.108 -40.234,38.898 -32.704,64.184c0.501,1.682 5.53,18.571 2.211,21.826c-13.018,12.768 -40.611,-43.319 -75.902,-6.582c-29.312,30.512 -11.837,80.036 -19.949,86.919c-17.733,15.048 -24.708,-48.47 -67.232,-39.141c-14.058,3.084 -36.972,26.621 -36.342,71.538c0.175,12.464 5.242,36.009 -8.676,31.949c-18.503,-5.398 -129.863,-298.942 100.099,-418.532c21.978,-11.43 51.915,-0.942 32.036,35.697c-9.285,17.113 35.61,84.307 92.036,78.196c6.392,-0.692 -28.646,-28.935 -11.947,-82.844c3.374,-10.891 18.293,-33.584 -0.898,-23.848c-20.722,10.513 -18.15,42.83 -31.62,30.606c-6.786,-6.158 -41.809,-72.208 22.138,-125.707c2.535,-2.121 -4.44,-17.817 -39.899,10.727c-21.394,17.222 -18.806,-77.199 50.644,-99.415c7.269,-2.325 11.084,-1.666 8.035,-4.299c-17.769,-15.344 -53.744,11.187 -52.734,-7.609c0.643,-11.975 27.966,-63.327 85.029,-63.291c14.144,0.009 28.33,5.776 18.275,-4.189c-16.876,-16.724 -41.932,-11.952 -31.144,-26.376c13.907,-18.594 52.766,-17.881 57.587,-17.792c11.683,0.214 -52.999,-29.433 -60.668,-108.012c-0.458,-4.69 3.082,-15.357 14.368,-4.201c15.476,15.298 35.774,39.366 85.465,57.088c9.378,3.345 -11.909,-10.483 -18.912,-54.329c-0.522,-3.268 -5.793,-36.27 5.642,-40.98c12.95,-5.334 14.358,33.516 64.088,70.862c29.707,22.308 61.539,27.372 82.572,54.994c8.338,10.95 19.748,-7.664 57.293,29.25c8.483,8.34 35.551,-3.839 53.945,60.603c1.106,3.876 11.147,4.458 16.255,9.373c10.438,10.045 14.818,0.971 26.107,10.07c10.347,8.34 11.6,0.673 25.022,0.329c42.975,-1.103 46.593,49.671 47.006,55.473l-422.247,253.998c-5.924,-7.579 -5.883,-7.534 -6.398,-8.185c-5.024,-6.347 -14.776,11.945 -15.341,21.514c-0.311,5.265 20.857,-3.364 25.318,-4.95c0.687,-0.244 1.931,-1.051 -3.579,-8.379l422.247,-253.998Z" style="fill:#e2e3e3;fill-opacity:0.99;"/><path d="M491.033,158.604c16.829,-5.764 16.785,-5.607 34.678,-5.989c52.382,-1.118 54.998,25.388 73.757,29.256c20.119,4.148 43.986,33.194 40.768,59.223c-11.257,12.505 -11.294,12.072 -23.273,23.54c-1.655,1.584 -0.83,1.651 -0.038,3.594c13.175,4.167 12.325,6.053 25.799,9.544c3.434,3.751 4.043,2.516 6.07,3.566c13.663,4.17 13.339,4.285 27.231,7.382c5.29,1.592 10.581,3.184 15.871,4.776c5.242,-13.278 3.03,-14.137 10.711,-26.157l0.696,-2.127c65.214,-20.024 60.411,62.652 32.989,100.065c-3.114,4.248 -3.678,0.272 -16.762,-8.908c-37.066,-17.865 -38.434,-13.028 -82.602,-23.754c-71.631,-17.394 -75.021,-43.511 -85.287,-45.983c-15.832,-3.812 10.681,37.761 78.249,53.87c48.54,11.572 52.563,8.463 53.303,16.422c-2.931,25.551 -1.745,27.296 0.165,26.394c14.857,-7.012 19.356,-29.168 30.541,-19.169c-3.367,8.638 -13.533,38.914 -52.293,56.515c-9.282,4.215 10.127,-18.673 -7.592,-37.407c-0.982,-1.038 -49.452,-29.79 -112.354,-25.767c-26.9,1.72 -44.056,5.006 -70.804,-19.893c-0.897,-11.116 -5.139,-10.718 -2.519,-25.372c1.11,-6.208 -38.35,-5.743 -27.423,-27.335c7.791,-15.395 30.394,-15.525 17.156,-21.071c-13.853,-5.804 -34.354,-27.85 -0.171,-35.252c8.209,-1.778 -1.096,-3.009 -9.025,-8.023c-0.689,-5.719 -30.705,-12.918 -40.296,-55.801c-0.614,-2.747 1.872,-1.526 14.427,6.024c8.732,3.902 13.551,8.771 56.485,19.864c4.455,-3.898 0.083,-10.029 -0.416,-10.729c6.912,-10.252 3.535,-12.222 11.956,-21.299Z" style="fill:#2477b7;"/><path d="M167.727,538.929c-4.304,-8.112 -4.782,-11.278 -5.879,-8.397c-3.295,8.653 -4.331,8.576 -2.654,17.549c-2.455,12.606 -6.013,11.807 -8.277,37.049c-0.14,1.56 -15.024,83.473 17.02,187.746c1.693,5.509 1.942,5.235 4.722,10.328c1.327,23.479 0.527,25.66 -0.599,24.095c-7.01,-9.741 -6.006,-10.177 -13.436,-19.701l1.317,-1.508l-0.388,-1.445c-0.942,-4.105 -35.589,-87.764 -27.736,-183.44c3.067,-37.368 19.678,-80.002 12.694,-73.414c-127.33,120.11 -82.368,277.737 -79.598,307.428c0.317,3.4 1.473,2.736 3.115,5.787c0.514,23.619 1.4,25.396 -0.304,24.438c-7.969,-4.477 -98.894,-247.906 69.789,-367.688c18.462,-13.11 55.656,-41.261 60.493,-15.154c2.221,11.986 -18.775,14.537 4.378,57.651c16.64,30.985 68.893,67.864 139.817,40.123c6.56,-2.566 -5.161,9.506 -5.236,9.603c-8.117,10.491 -13.419,27.253 -14.215,29.769c-3.784,1.38 -3.998,2.267 -4.872,1.038c-6.001,-8.436 -58.587,2.556 -104.374,-33.933c-11.282,-8.991 -11.439,-8.535 -20.213,-20.3c-18.619,-24.969 36.632,114.893 69.771,144.326c2.165,8.306 2.602,7.901 5.069,15.992c0.471,1.545 -1.466,2.224 -2.491,1.4c-8.804,-7.083 -8.475,-7.161 -17.744,-13.711c-0.613,-7.794 -8.913,-13.737 -18.157,-28.349c-29.559,-46.725 -38.736,-65.219 -62.012,-147.281Z" style="fill:#1d60a5;"/><path d="M767.151,448.034c1.16,0.724 38.75,41.083 52.024,53.612c-13.115,12.142 -12.528,12.343 -25.144,25.271c-5.241,6.211 -2.997,7.639 7.871,19.101c2.475,2.611 2.579,2.439 31.681,31.913c7.601,7.698 8.868,1.777 18.099,-6.11c9.518,-8.588 9.438,-8.352 18.787,-17.348c25.937,23.048 38.606,39.275 49.832,47.982c0.3,0.233 1.363,1.057 3.151,3.559c-53.205,13.201 -55.999,-3.351 -94.131,11.347c-21.962,8.465 -118.294,117.548 -121.527,122.492c-10.159,-0.542 -9.947,-0.522 -20.08,-2.08l-1.647,-0.611c0.293,-0.405 1.153,0.801 1.447,0.396c2.147,-2.966 0.805,-3.5 2.937,-6.381c12.244,-11.054 41.975,-42.992 45.535,-46.816c17.051,-18.317 47.874,-48.125 52.207,-54.557c24.097,-35.771 -93.861,92.578 -100.601,96.943c-2.795,-1.025 -5.883,-0.616 -35.778,-20.793c2.556,-3.225 2.96,-2.926 3.47,-5.224c2.025,-9.124 3.572,-8.146 10.754,-15.614c2.151,-2.237 23.98,-24.938 27.49,-27.37c2.035,0.695 2.347,0.523 2.816,-1.601c2.246,-9.192 7.938,-9.232 17.535,-15.117c6.123,3.449 5.819,3.697 12.316,6.275c10.73,22.093 16.957,-22.326 -6.834,-28.832c-7.809,-10.71 -20.269,-20.946 -8.711,-14.353c4.488,2.56 13.77,9.781 21.702,9.046c8.827,5.635 8.646,5.542 17.66,11.25c3.24,8.13 9.83,7.21 9.248,-1.526c-0.812,-12.178 -1.038,-12.167 -7.306,-22.534c8.681,-5.509 9.017,-5.692 19.178,-3.052c1.027,1.007 12.012,11.779 12.935,12.499l2.419,-1.936c1.068,4.48 -1.71,6.865 2.905,7.079c0.351,0.016 0.227,0.234 3.065,3.153c0.896,-43.031 -44.551,-35.803 -47.058,-22.908c-0.95,0.057 -1.9,0.113 -2.85,0.17c-0.047,-0.078 -0.952,-3.431 -10.45,-13.922c14.465,-14.149 25.517,-23.92 27.901,-46.761c3.74,-35.825 -9.809,-37.432 7.154,-86.641Z" style="fill:#b8b9b9;"/><path d="M767.151,448.034c44.157,-92.951 148.947,-57.322 148.982,-56.444c0.086,2.201 -43.938,45.382 -47.859,49.228c-15.4,15.105 -12.465,17.353 -11.353,38.905c0.224,4.337 1.97,3.387 33.389,35.732c13.115,13.501 15.426,8.915 34.188,8.712c5.391,-0.058 10.852,-9.363 62.119,-58.927c7.518,-7.269 9.046,32.667 8.939,36.172c-2.404,78.616 -62.58,101.05 -72.103,104.6c-1.787,-2.502 -2.85,-3.326 -3.151,-3.559c-11.226,-8.707 -23.895,-24.934 -49.832,-47.982l1.213,-1.84c4.005,-5.598 -0.205,-7.832 -4.157,-11.543c-39.968,-37.525 -39.291,-43.098 -48.35,-39.444c-13.275,-12.529 -50.864,-52.888 -52.024,-53.612Z" style="fill:#cdcecf;"/><path d="M158.625,787.596c-39.625,-37.922 -81.937,-14.624 -90.596,53.408c-1.643,-3.051 -2.798,-2.387 -3.115,-5.787c-2.77,-29.691 -47.732,-187.319 79.598,-307.428c6.984,-6.588 -9.626,36.046 -12.694,73.414c-7.853,95.675 26.794,179.335 27.736,183.44l0.388,1.445l-1.317,1.508Z" style="fill:#32a5cf;"/><path d="M639.179,701.301c16.502,22.401 17.818,21.421 46.889,35.86l1.647,0.611c10.132,1.557 9.921,1.538 20.08,2.08c9.016,4.365 23.609,31.198 -14.418,30.931c-7.479,-0.053 6.712,13.438 3.81,25.277c-4.791,19.549 -29.213,-3.987 -30.089,16.024c-0.115,2.617 -1.523,34.78 -29.652,13.899c-15.705,-11.658 -23.944,1.045 -62.888,-37.855c4.406,-8.861 7.445,-10.558 -2.715,-27.815c1.837,-1.027 32.286,-17.802 4.546,-41.97c22.107,-16.301 19.142,-21.835 23.622,-31.65c8.03,-17.592 41.805,-24.112 39.892,-19.089c-5.488,14.407 -8.938,15.17 -0.725,33.697Z" style="fill:#1f62a9;"/><path d="M167.727,538.929c23.276,82.062 32.453,100.556 62.012,147.281c9.244,14.613 17.544,20.556 18.157,28.349c-69.812,-22.18 -74.867,65.369 -75.237,68.643c-2.781,-5.092 -3.03,-4.819 -4.722,-10.328c-32.043,-104.273 -17.16,-186.186 -17.02,-187.746c2.263,-25.242 5.822,-24.443 8.277,-37.049c1.638,-2.711 1.402,-2.62 1.638,-2.711c4.786,-1.864 1.668,-6.55 6.895,-6.44Z" style="fill:#2d97c9;"/><path d="M464.32,585.952c16.46,21.345 17.184,24.129 21.086,51.288c-0.013,15.988 0.69,15.914 -2.432,34.839c-0.884,0.328 -1.456,-1.919 -2.34,-1.59c-0.973,0.361 -0.652,1.985 -1.161,2.89c-3.248,5.777 -3.983,4.881 -9.814,7.743c-19.387,9.515 -15.808,13.804 -22.008,25.472c-5.268,9.914 -26.771,17.532 -33.199,15.031c-20.915,-8.137 -20.781,-9.846 -29.597,-30.407c-4.852,-11.316 -9.848,10.971 -39.75,3.009l-1.445,0.581l-1.751,0.411c-1.456,-2.906 -2.912,-5.812 -4.368,-8.719c8.386,-2.664 17.359,15.216 45.381,-5.498c5.567,-8.335 5.646,-8.16 9.338,-17.516c-8.796,-5.524 -17.567,-10.432 -23.607,-28.138l-0.528,-2.349l-0.021,-4.823c3.745,-0.271 10.354,2.118 21.203,-8.817c9.72,-9.798 8.515,-19.344 8.287,-21.146c0.133,-0.219 -0.031,0.051 2.733,-1.676c11.644,22.991 46.041,37.947 60.895,-6.817c0.123,-0.37 0.229,-0.279 3.098,-3.769Z" style="fill:#1b5295;"/><path d="M383.656,506.715c0.926,0.706 1.851,1.412 2.777,2.117c22.533,51.046 81.74,44.771 97.175,25.883c6.357,4.1 7.458,-6.465 10.283,-4.878c9.423,5.295 4.903,14.15 18.624,13.044c0.285,-0.023 0,0 3.565,0.295l2.005,3.141c9.785,18.384 9.543,18.333 17.49,37.597c0.097,0.235 0,-0 1.904,2.539l-0.499,1.672c4.182,20.254 5.383,19.88 6.36,40.452c0.443,9.333 -1.739,13.484 1.794,18.326c-4.206,5.389 -2.879,5.841 -3.926,10.41c-5.397,20.663 -7.719,33.25 -18.422,48.326c-35.478,-7.823 -37.914,-6.138 -37.008,-9.048c1.596,-5.124 12.326,-39.579 8.905,-66.493c-8.376,-65.896 -68.791,-74.881 -77.382,-76.159c-4.321,-8.636 -9.985,-5.697 -11.814,-8.784c-5.884,-9.932 -7.183,-8.87 -7.644,-9.748c-3.451,-6.57 -7.588,-11.097 -8.376,-11.959c-6.942,-7.597 -29.97,19.427 -35.751,16.851c-5.995,-2.671 -5.729,0.091 -10.245,4.613c-6.164,-8.577 -5.997,-8.402 -12.082,-17.078c10.099,-2.116 30.816,9.381 52.269,-21.121Z" style="fill:#1c589d;"/><path d="M482.973,672.079c-7.893,30.744 -15.641,34.661 -7.76,35.267c14.649,1.127 14.434,1.84 23.09,3.39c-5.12,10.31 -5.833,9.741 -16.415,17.144c-4.922,2.968 -4.873,2.979 -5.315,3.205c-14.202,7.257 -26.813,-0.033 -20.025,10.032c0.962,1.927 0.925,1.759 0.962,1.927c4.843,22.067 0.158,31.306 -17.119,34.841c-11.821,-0.434 -12.775,1.375 -21.337,-6.536c-5.028,-4.645 -3.6,-8.178 -10.356,-6.907c-32.347,10.518 -26.635,-14.833 -39.151,-16.32l0.266,1.841c-0.184,6.218 11.968,15.499 12.99,21.957c-9.165,5.122 -10.36,3.775 -15.585,12.973c-2.744,4.831 -2.663,10.695 -4.839,5.587c-10.417,-24.454 -2.19,-32.984 0.126,-40.513c0.49,-1.592 -8.157,-1.886 -8.26,-1.977c-4.883,-4.328 14.556,-15.385 9.049,-22.141c-11.873,-14.564 -12.039,-14.244 -21.385,-30.629l1.751,-0.411l1.445,-0.581c29.902,7.962 34.898,-14.326 39.75,-3.009c8.815,20.561 8.681,22.27 29.597,30.407c6.428,2.501 27.93,-5.118 33.199,-15.031c6.201,-11.668 2.621,-15.958 22.008,-25.472c5.832,-2.862 6.567,-1.966 9.814,-7.743c0.509,-0.905 0.187,-2.529 1.161,-2.89c0.884,-0.328 1.456,1.919 2.34,1.59Z" style="fill:#1e64a9;"/><path d="M283.865,349.584c7.171,8.011 27.641,30.435 58.601,7.077c12.89,18.941 18.344,22.74 43.239,21.935c-0.44,3.857 -0.881,7.715 -1.321,11.572c-1.251,-0.331 -1.905,-1.929 -3.155,-2.26c-3.142,-0.832 -3.983,1.611 -5.78,-1.087c-24.784,-10.058 -28.682,-10.296 -29.846,-17.236c-0.978,-5.829 -3.245,-3.58 -9.131,-3.489c-1.125,0.017 -6.272,0.097 -2.563,13.828c6.977,25.828 21.089,29.654 32.757,34.475c-0.319,0.935 -0.638,1.871 -0.957,2.806c1.632,1.872 1.238,1.834 1.591,4.374c0.563,17.303 -2.406,22.57 -11.075,35.922c-27.992,30.452 -43.26,10.906 -56.461,10.832c-19.901,-57.347 -19.309,-65.705 -15.898,-118.75Z" style="fill:#1c589b;"/><path d="M624.399,566.326c2.82,5.724 27.04,54.878 15.822,78.181l-1.785,0.927c-5.779,3.984 -5.585,3.963 -11.434,7.882c-2.454,1.644 -2.522,0.823 -4.302,1.633c-2.143,0.975 0.499,1.107 1.427,3.163c-4.423,1.64 -8.847,3.281 -13.27,4.921c-1.104,-0.38 -1.651,-1.784 -2.755,-2.163c-7.568,-2.603 -16.08,14.492 -62.97,-13.966c-3.533,-4.842 -1.351,-8.993 -1.794,-18.326c-0.977,-20.573 -2.177,-20.198 -6.36,-40.452l0.499,-1.672c48.403,25.149 86.004,-19.275 86.921,-20.127Z" style="fill:#2ca3cf;"/><path d="M322.749,619.747c-3.027,14.82 2.6,21.008 -12.359,23.064c-49.89,6.858 -47.605,61.44 -47.328,68.067c-33.14,-29.433 -88.391,-169.295 -69.771,-144.326c8.773,11.765 8.931,11.31 20.213,20.3c45.787,36.489 98.372,25.497 104.374,33.933c0.874,1.229 1.088,0.342 4.872,-1.038Z" style="fill:#2d98c5;"/><path d="M491.033,158.604c-8.421,9.076 -5.044,11.047 -11.956,21.299c-55.664,-13.548 -52.386,-21.242 -70.557,-30.721c-17.025,-8.881 -4.202,30.626 -9.753,26.692c-58.33,-41.346 -70.165,-74.261 -73.17,-80.83c-2.358,-5.153 -9.462,-29.795 -9.434,-30.012c0.465,-3.717 1.842,-0.257 6.081,4.076c45.23,46.237 85.917,52.391 124.106,63.515c28.134,8.195 38.608,23.595 44.683,25.982Z" style="fill:#2da3cb;"/><path d="M426.092,220.5c11.395,0.108 11.169,0.231 22.784,0.045c7.929,5.014 17.234,6.245 9.025,8.023c-34.182,7.402 -13.682,29.448 0.171,35.252c13.238,5.546 -9.365,5.676 -17.156,21.071c-10.927,21.592 28.533,21.127 27.423,27.335c-2.62,14.653 1.622,14.255 2.519,25.372c-2.4,1.186 -4.8,2.372 -7.199,3.557c-2.557,1.167 -43.06,19.651 -33.749,9.78c11.244,-11.92 20.1,-38.46 14.939,-37.909c-16.479,1.76 -16.906,13.183 -69.354,3.36c-1.981,-0.371 -0.426,-1.251 -0.481,-1.413l0.527,-1.212c52.638,-11.318 53.67,-56.564 32.978,-66.371c-17.03,-8.071 -29.475,-9.81 -48.35,-42.372c-2.811,-4.849 9.648,2.63 16.949,5.366c17.19,6.44 44.999,9.656 48.973,10.115Z" style="fill:#1f6bac;"/><path d="M435.215,464.962l0.924,1.784c0.328,0.498 5.846,11.907 19.018,21.347c15.159,10.864 23.053,6.513 29.526,13.668l1.649,4.097c0.814,1.79 1.629,3.58 2.443,5.369c-0.302,0.403 -1.815,2.426 -1.776,6.037c0.016,1.473 1.507,0.959 2.71,7.262c0.984,5.156 -4.542,4.56 -6.103,10.19c-15.436,18.889 -74.642,25.163 -97.175,-25.883c6.865,-17.793 9.694,-23.026 10.727,-24.936c19.251,-0.949 22.302,-2.718 35.497,-16.168l2.558,-2.766Z" style="fill:#19458b;"/><path d="M519.566,721.242l1.827,-1.456c6.299,8.766 6.357,9.302 4.143,19.976c-0.075,0.361 -3.807,5.037 3.1,4.636c1.665,-0.097 1.685,-1.364 2.891,-0.289c2.061,1.838 0.034,2.897 2.097,4.737c3.547,4.624 6.424,5.617 1.752,9.05c4.59,6.436 3.586,6.793 5.177,10.924c-1.293,13.09 -2.285,24.415 -29.364,28.757c-1.439,3.215 -1.461,3.285 0.161,6.376c-15.528,2.077 -34.118,5.538 -67.981,2.286c3.785,-5.81 -1.73,-19.796 -2.362,-21.398c-0.186,-6.467 -0.631,-6.397 -0.616,-6.956c17.277,-3.535 21.961,-12.774 17.119,-34.841c-0.037,-0.168 -0,-0 -0.962,-1.927c2.255,-0.628 3.827,-0.142 4.143,-0.044c0.937,0.29 13.279,-1.11 23.211,-10.154c7.407,8.318 9.138,8.629 12.807,27.613c3.438,-0.649 36.005,-6.798 22.857,-37.291Z" style="fill:#1e62a6;"/><path d="M593.996,514.076c19.381,19.059 23.181,16.671 32.512,42.362c1.693,4.662 -0.639,4.415 -2.109,9.888c-0.917,0.852 -38.518,45.276 -86.921,20.127c-1.904,-2.539 -1.808,-2.304 -1.904,-2.539c-7.947,-19.264 -7.705,-19.213 -17.49,-37.597c10.931,-6.656 13.878,5.862 27.95,-1.299c3.175,-1.616 10.963,-1.041 12.794,-2.008c28.45,-15.038 25.521,-18.643 35.168,-28.934Z" style="fill:#2ca5d1;"/><path d="M388.21,369.938c0.269,0.335 2.175,2.71 3.351,4.198c-0.338,1.356 -3.891,1.448 0.995,10.271c0.215,6.993 3.131,4.226 3.284,4.223c7.145,11.206 9.167,10.423 11.57,11.316l1.273,2.487c1.85,0.896 3.7,1.793 5.55,2.689c5.382,2.007 6.197,0.233 10.103,4.404c4.412,4.71 7.843,1.038 18.998,3.331c2.659,1.869 2.416,1.952 5.808,2.643c12.758,-2.961 13.275,-1.117 24.456,-7.913c21.206,22.294 29.56,19.123 26.159,31.655c-2.04,1.016 -2.147,0.447 -3.987,1.985c-33.161,27.715 -52.537,13.756 -63.531,16.385c-15.299,-13.394 -41.105,-8.408 -47.857,-67.444c0.44,-3.857 0.881,-7.715 1.321,-11.572c0.835,-2.886 1.669,-5.772 2.504,-8.657Z" style="fill:#64bfdf;"/><path d="M386.866,328.694c22.001,1.489 21.892,1.679 43.514,-1.658c13.455,-2.077 -35.715,39.867 -5.897,36.43c32.983,-3.801 42.08,-19.086 40.289,-5.14c-3.371,26.252 8.576,27.095 3.524,41.703c-37.356,8.03 -56.923,4.939 -76.735,-25.893c-1.176,-1.489 -3.082,-3.863 -3.351,-4.198c-1.933,-7.349 -1.522,-7.217 -3.353,-14.372c-0.437,-7.273 -0.593,-7.025 -0.301,-14.498c1.923,-8.081 4.103,-7.89 2.31,-12.374Z" style="fill:#61b7d6;"/><path d="M356.224,457.501c0.762,1.104 1.524,2.208 2.286,3.312c7.631,9.937 11.313,16.183 28.633,21.375c0.242,0.272 3.028,3.406 3.028,3.406c0.137,1.886 -1.231,3.681 -1.094,5.567c-2.277,8.171 -1.888,8.052 -5.422,15.554c-21.452,30.502 -42.17,19.006 -52.269,21.121c-13.841,-21.501 -15.412,-21.767 -31.624,-59.503c13.201,0.074 28.468,19.62 56.461,-10.832Z" style="fill:#1b5599;"/><path d="M550.522,473.549c23.174,12.432 41.886,20.315 37.883,34.856c-24.642,31.054 -36.919,34.601 -76.811,25.929c-20.746,-16.385 -19.216,-17.893 -22.817,-23.107c-0.814,-1.79 -1.629,-3.58 -2.443,-5.369l0.936,-1.541c6.754,-3.134 6.843,6.372 11.033,5.15c4.104,-1.197 4.885,0.171 7.294,-3.394c2.735,-4.048 5.298,1.427 13.345,-4.066c0.196,-0.125 2.452,-1.556 2.452,-1.556c-0.054,-0.931 -1.599,-1.325 -1.653,-2.256c4.392,-1.394 4.748,0.65 8.427,-1.711c5.747,-3.688 6.24,-5.733 6.411,-6.439c2.031,-8.416 8.967,-6.155 13.616,-14.628l2.328,-1.867Z" style="fill:#2ea4d2;"/><path d="M396.096,31.986c3.987,-0.073 2.657,1.643 4.472,5.3c29.223,58.881 103.639,83.013 125.11,102.931c4.776,4.431 -13.946,1.443 -27.452,5.595c-11.332,3.484 -9.249,-6.041 -32.03,-16.621c-24.683,-11.463 -38.407,-2.482 -55.49,-34.125c-17.601,-32.602 -14.278,-53.947 -14.609,-63.08Z" style="fill:#1a4682;"/><path d="M505.754,443.258c18.147,10.027 18.988,7.907 36.971,18.276c4.198,2.42 2.02,6.582 2.008,6.676c-29.582,41.274 -46.512,26.986 -58.02,31.134c-0.99,0.357 -1.04,2.06 -2.029,2.417c-6.474,-7.154 -14.367,-2.804 -29.526,-13.668c-13.173,-9.44 -18.69,-20.849 -19.018,-21.347c5.43,-1.618 5.261,-1.935 7.277,-1.679c0.613,0.078 2.365,1.546 7.184,1.189c10.955,-0.812 10.623,-2.124 11.564,-2.14c5.934,-0.098 5.957,0.908 11.63,-1.148c16.729,-6.064 16.228,-6.815 30.387,-17.896l1.573,-1.814Z" style="fill:#2ca6d2;"/><path d="M401.528,255.618c-0.743,0.535 -1.486,1.07 -2.229,1.605c-0.306,1.888 -0.612,3.776 -0.917,5.664c-13.47,3.375 -25.119,-1.522 -25.718,4.569c-1.283,13.038 2.061,20.776 1.91,21.724c-0.288,1.813 -17.628,2.975 -19.178,3.079c-8.371,0.561 -3.961,23.416 -2.889,26.851l-3.135,1.643c-0.655,-10.944 -2.644,-10.564 -1.884,-21.26c0.598,-8.409 -20.137,-11.645 -24.98,-31.027c-0.812,-3.25 -0.098,-4.283 -1.984,-3.99c-3.165,0.493 -2.339,-1.254 -3.323,-1.781c2.702,-3.749 34.617,-48.024 40.512,-41.179c16.679,19.365 15.493,21.286 43.815,34.103Z" style="fill:#194d8c;"/><path d="M819.175,501.645c9.059,-3.654 8.382,1.919 48.35,39.444c3.952,3.71 8.161,5.945 4.157,11.543c-6.692,-7.297 -9.347,-13.712 -13.41,-4.749c-9.197,20.288 -8.875,20.883 -6.59,23.936c-9.232,7.887 -10.498,13.808 -18.099,6.11c-29.102,-29.474 -29.206,-29.302 -31.681,-31.913c-10.868,-11.462 -13.112,-12.889 -7.871,-19.101c12.616,-12.927 12.029,-13.129 25.144,-25.271Z" style="fill:#7a7a7a;"/><path d="M545.132,646.904c46.889,28.457 55.401,11.362 62.97,13.966c1.104,0.38 1.651,1.784 2.755,2.163c-25.718,16.361 -17.648,23.086 -26.437,34.508c-12.645,16.434 -25.492,15.752 -61.636,8.099c10.703,-15.076 13.025,-27.663 18.422,-48.326c1.048,-4.57 -0.28,-5.021 3.926,-10.41Z" style="fill:#2ca0cb;"/><path d="M335.393,612.817l1.325,1.318l0.502,1.445c11.914,11.705 10.73,13.948 26.867,18.268c1.522,0.5 3.045,1.001 4.567,1.501c6.039,17.706 14.81,22.614 23.607,28.138c-3.693,9.356 -3.771,9.181 -9.338,17.516c-28.022,20.714 -36.996,2.834 -45.381,5.498c-11.588,-31.708 -10.345,-46.898 -2.147,-73.684Z" style="fill:#227bb8;"/><path d="M367.299,421.579c4.231,1.243 13.935,-8.306 22.264,4.985c0.735,0.389 1.47,0.778 2.205,1.167c-0.503,5.506 10.032,15.615 10.043,15.628l-1.712,1.712c2.179,3.068 2.066,3.079 2.281,3.319c5.639,6.324 7.818,16.918 27.921,16.976l0.973,0.073c0.46,0.763 0.921,1.526 1.381,2.289c-13.194,13.45 -16.246,15.219 -35.497,16.168c-3.339,-0.569 -6.678,-1.138 -10.017,-1.708c-17.32,-5.192 -21.002,-11.438 -28.633,-21.375c-0.762,-1.104 -1.524,-2.208 -2.286,-3.312c8.669,-13.352 11.638,-18.619 11.075,-35.922Z" style="fill:#1d5ea4;"/><path d="M541.52,807.129c28.855,-7.773 29.449,-8.152 31.516,-6.214c20.621,19.332 28.123,17.99 23.159,23.946c-24.939,29.928 -42.229,45.537 -67.586,8.631c2.948,-5.081 1.024,-6.078 1.547,-8.337c0.879,-3.794 2.521,-2.172 5.458,-4.734c0.754,-3.836 4.603,-4.77 5.906,-13.292Z" style="fill:#b8b8b8;"/><path d="M297.094,298.966c8.555,6.468 6.46,27.074 42.236,24.689c0.095,1.006 0.19,2.013 0.285,3.019c-3.306,17.992 0.549,22.082 2.852,29.987c-30.96,23.358 -51.43,0.934 -58.601,-7.077c5.034,-25.896 5.092,-25.648 13.229,-50.619Z" style="fill:#1a4c91;"/><path d="M277.984,430.755c3.686,14.017 3.882,13.662 8.237,27.226c1.384,4.31 -23.504,6.578 -30.629,30.468c-0.107,0.36 -2.076,6.96 -3.919,2.592c-6.692,-15.864 -22.325,-56.349 18.308,-99.412c2.193,-2.324 1.113,1.513 8.002,39.126Z" style="fill:#206fb4;"/><path d="M420.719,664.183c14.424,21.678 17.268,19.767 28.992,18.974c0.903,34.867 -47.365,54.564 -64.312,-1.068c4.148,-3.194 6.148,-3.697 10.125,-16.178c0.505,-1.586 12.608,-5.326 14.623,-3.822c6.493,4.847 7.024,2.043 10.571,2.093Z" style="fill:#247bb9;"/><path d="M271.275,242.613c18.853,-13.377 29.515,-19.587 60.731,-18.154c4.061,0.186 -2.316,6.406 -2.737,6.816c-21.052,20.532 -30.747,46.783 -34.836,44.982c-21.582,-9.507 -22.516,-9.659 -44.727,-1.914c-2.898,1.011 -6.689,-5.118 21.569,-31.73Z" style="fill:#184788;"/><path d="M683.195,356.923c-0.74,-7.959 -4.763,-4.85 -53.303,-16.422c-67.568,-16.109 -94.081,-57.682 -78.249,-53.87c10.265,2.472 13.656,28.589 85.287,45.983c44.169,10.725 45.536,5.888 82.602,23.754c-3.115,3.681 -2.995,3.553 -5.63,7.78c-11.185,-9.999 -15.685,12.157 -30.541,19.169c-1.91,0.901 -3.096,-0.843 -0.165,-26.394Z" style="fill:#c5cacb;"/><path d="M369.454,573.289l1.837,1.831c0.696,1.564 -1.69,4.612 23.212,16.72c0.548,1.048 -0.446,1.029 0.096,2.064c0.195,0.372 0.222,0.319 2.996,4.309c0.227,1.803 1.432,11.349 -8.287,21.146c-10.849,10.936 -17.458,8.547 -21.203,8.817c-19.518,-3.112 -18.242,-6.232 -27.994,-16.361c-0.231,-0.24 -0.271,-0.149 -3.655,-2.008c8.406,-16.922 13.176,-23.895 32.999,-36.52Z" style="fill:#1f62a8;"/><path d="M423.133,565.009c19.925,5.044 22.429,4.822 41.187,20.943c-2.868,3.49 -2.975,3.398 -3.098,3.769c-14.854,44.764 -49.251,29.808 -60.895,6.817l-0.957,-2.418c-0.369,-1.067 -0.738,-2.133 -1.107,-3.2c14.119,-4.343 26.09,-15.05 25.004,-24.469l-0.135,-1.442Z" style="fill:#257cbb;"/><path d="M384.384,390.168c6.752,59.037 32.559,54.05 47.857,67.444c0.991,2.45 1.982,4.9 2.973,7.35l-2.558,2.766c-0.46,-0.763 -0.921,-1.526 -1.381,-2.289c-0.324,-0.024 -0.648,-0.049 -0.973,-0.073c-20.103,-0.057 -22.282,-10.651 -27.921,-16.976c0.569,-2.745 0.877,-2.703 -0.569,-5.031c-0.011,-0.013 -10.547,-10.122 -10.043,-15.628l-2.205,-1.167c-8.329,-13.291 -18.033,-3.742 -22.264,-4.985c-0.353,-2.54 0.041,-2.503 -1.591,-4.374c0.319,-0.935 0.638,-1.871 0.957,-2.806c-11.668,-4.822 -25.78,-8.647 -32.757,-34.475c-3.709,-13.731 1.438,-13.81 2.563,-13.828c5.886,-0.091 8.154,-2.34 9.131,3.489c1.164,6.94 5.062,7.178 29.846,17.236c1.797,2.698 2.638,0.255 5.78,1.087c1.251,0.331 1.905,1.929 3.155,2.26Z" style="fill:#1a4f90;"/><path d="M266.913,307.547c8.692,-4.835 8.225,-5.441 17.467,-8.718c6.846,-2.427 -2.454,3.399 -9.409,43.731c-2.234,12.955 3.955,20.206 -9.31,19.61c-25.871,-1.163 -37.96,21.074 -37.045,13.481c3.762,-31.217 10.159,-48.121 38.297,-68.104Z" style="fill:#194789;"/><path d="M320.205,529.096c5.576,8.452 11.097,9.545 3.737,16.263c-11.774,10.748 -12.793,28.58 -12.947,31.284c-0.698,12.22 -35.507,-32.584 -20.784,-75.213c5.07,-14.68 6.034,-14.997 7.053,-14.236c3.062,2.287 -0.226,4.4 22.941,41.901Z" style="fill:#194689;"/><path d="M317.201,262.695c0.984,0.528 0.158,2.274 3.323,1.781c1.886,-0.294 1.171,0.739 1.984,3.99c4.844,19.382 25.578,22.618 24.98,31.027c-0.76,10.695 1.229,10.316 1.884,21.26l-1.972,0.96c-2.69,0.647 -5.38,1.295 -8.07,1.942c-35.776,2.385 -33.681,-18.221 -42.236,-24.689c9.056,-18.683 8.863,-18.641 20.107,-36.271Z" style="fill:#2068af;"/><path d="M398.382,262.887c2.016,10.784 8.867,17.586 10.078,18.788c-19.088,28.445 -65.845,24.504 -48.479,38.526c4.871,3.933 24.677,8.036 26.885,8.494c1.793,4.485 -0.387,4.293 -2.31,12.374c-2.554,0.079 -19.607,6.395 -32.049,-21.959c-1.072,-3.434 -5.482,-26.289 2.889,-26.851c1.55,-0.104 18.89,-1.267 19.178,-3.079c0.151,-0.947 -3.193,-8.686 -1.91,-21.724c0.599,-6.091 12.248,-1.195 25.718,-4.569Z" style="fill:#1c5999;"/><path d="M515.763,714.635c4.745,1.047 44.92,9.913 60.627,3.708c27.739,24.168 -2.709,40.943 -4.546,41.97c-4.586,-3.399 -8.638,-8.909 -10.431,-3.307c-1.626,5.08 -12.742,13.952 -12.854,14.004c-5.904,2.7 -2.817,4.909 -5.496,10.652c-1.553,0.952 -11.601,17.425 -11.755,18.168c-6.653,1.375 -13.305,2.749 -19.958,4.124c-1.622,-3.091 -1.6,-3.161 -0.161,-6.376c27.079,-4.342 28.071,-15.667 29.364,-28.757c36.718,-11.265 11.77,-51.123 3.86,-43.504c-9.798,9.438 -13.748,8.552 -12.214,12.939c4.588,13.127 17.507,-10.967 18.328,-1.339c0.313,3.674 -6.789,4.927 -16.903,11.929c-2.063,-1.84 -0.036,-2.899 -2.097,-4.737c-1.206,-1.075 -1.226,0.192 -2.891,0.289c-6.907,0.401 -3.175,-4.275 -3.1,-4.636c2.214,-10.674 2.155,-11.21 -4.143,-19.976l-1.827,1.456c-2.603,-2.912 -2.385,-2.868 -3.802,-6.608Z" style="fill:#1a4986;"/><path d="M722.327,574.945c3.256,2.164 6.512,4.327 9.768,6.491c9.498,10.491 10.403,13.844 10.45,13.922c-0.186,0.396 0.433,0.58 -3.317,7.124l-1.088,1.645c-3.449,4.285 -3.763,3.958 -5.789,9.036c-7.932,0.735 -17.214,-6.486 -21.702,-9.046c-11.558,-6.593 0.902,3.643 8.711,14.353c-0.668,4.764 -2.142,4.127 -2.969,8.681c-4.105,5.259 -3.597,5.406 -8.631,9.988c-2.701,0.31 -2.509,0.179 -5.376,-0.335c-4.748,-2.867 -9.495,-5.733 -14.243,-8.6c-2.139,-1.568 -4.279,-3.135 -6.418,-4.703c3.303,-16.246 6.097,-15.518 21.967,-20.588c0.074,-0.543 0.148,-1.086 0.221,-1.629c1.26,-19.865 11.348,-20.619 18.415,-26.339Z" style="fill:#206eb3;"/><path d="M343.469,544.915c4.516,-4.522 4.25,-7.284 10.245,-4.613c5.781,2.576 28.809,-24.449 35.751,-16.851c0.788,0.862 4.925,5.39 8.376,11.959c0.461,0.877 1.76,-0.184 7.644,9.748c1.828,3.086 7.493,0.148 11.814,8.784c-22.135,-0.277 -31.64,-0.91 -53.708,11.998c-3.485,2.039 -17.492,-17.636 -20.122,-21.024Z" style="fill:#18468a;"/><path d="M349.891,324.664c12.215,20.397 14.675,18.189 34.966,30.902c1.831,7.155 1.42,7.023 3.353,14.372c-0.835,2.886 -1.669,5.772 -2.504,8.657c-24.895,0.805 -30.349,-2.994 -43.239,-21.935c-2.303,-7.905 -6.157,-11.996 -2.852,-29.987c0.836,-0.054 5.624,-0.366 10.277,-2.01Z" style="fill:#1f65ab;"/><path d="M369.547,748.123c12.516,1.488 6.804,26.838 39.151,16.32l0.539,1.415c-0.317,2.853 9.687,13.67 22.707,16.711c5.506,1.287 5.647,0.892 6.522,2.073c1.013,1.367 1.28,1.313 2.542,0.198c0.632,1.602 6.146,15.589 2.362,21.398c-3.804,-0.582 -33.88,-5.182 -45.716,-14.963c-12.551,-10.371 -4.018,-23.445 -14.849,-19.356c-1.022,-6.458 -13.173,-15.739 -12.99,-21.957l-0.266,-1.841Z" style="fill:#1a5394;"/><path d="M722.327,574.945c-7.067,5.72 -17.156,6.474 -18.415,26.339l-0.221,1.629c-15.871,5.07 -18.664,4.342 -21.967,20.588c-4.027,1.336 -3.575,1.972 -10.981,8.424c-2.192,-2.689 -13.017,-15.963 6.537,-42.868c16.791,-17.12 32.532,-17.594 45.048,-14.113Z" style="fill:#1f579a;"/><path d="M498.303,710.737c5.82,1.299 11.64,2.599 17.46,3.898c1.417,3.74 1.199,3.696 3.802,6.608c13.148,30.492 -19.419,36.641 -22.857,37.291c-3.668,-18.984 -5.4,-19.295 -12.807,-27.613l-2.014,-3.039c10.582,-7.404 11.295,-6.835 16.415,-17.144Z" style="fill:#1e5ea2;"/><path d="M395.491,185.311c3.53,2.144 7.216,2.834 3.345,4.307c-10.883,4.14 -10.71,3.828 -20.774,9.275c-4.149,2.246 -31.019,-17.385 -28.773,0.537c0.292,2.326 4.869,9.586 1.476,9.219c-2.769,-0.3 3.02,-9.203 -28.559,-19.92c-5.707,-1.937 19.56,-15.765 48.967,-12.908c13.316,1.293 12.905,2.661 24.317,9.49Z" style="fill:#215ca0;"/><path d="M571.844,760.313c10.16,17.257 7.12,18.953 2.715,27.815c-2.468,-0.07 -2.279,-0.127 -2.468,-0.07c-20.438,6.229 -20.176,6.255 -40.783,11.772c0.154,-0.743 10.202,-17.217 11.755,-18.168c2.678,-5.743 -0.408,-7.952 5.496,-10.652c0.112,-0.051 11.228,-8.924 12.854,-14.004c1.793,-5.602 5.845,-0.091 10.431,3.307Z" style="fill:#1d5fa1;"/><path d="M640.237,241.093c13.333,4.122 15.093,1.262 24.242,11.75c-9.19,11.205 -4.103,16.271 -21.755,24.928c-13.473,-3.492 -12.624,-5.378 -25.799,-9.544c-0.792,-1.943 -1.617,-2.01 0.038,-3.594c11.979,-11.468 12.016,-11.035 23.273,-23.54Z" style="fill:#35add3;"/><path d="M677.28,589.057c-19.554,26.904 -8.729,40.179 -6.537,42.868c-7.739,8.254 -7.571,7.988 -15.4,16.425c-2.541,2.739 -4.994,-1.108 -4.406,-3.92c5.279,-25.242 1.881,-25.325 -4.199,-50.486c-0.581,-2.405 0.418,-3.877 30.541,-4.886Z" style="fill:#14386e;"/><path d="M666.093,253.827c19.793,1.599 20.226,2.278 24.905,8.678c-3.495,8.961 -4.812,14.45 -14.972,26.213c-13.893,-3.097 -13.569,-3.212 -27.231,-7.382c14.806,-10.225 16.687,-23.127 17.042,-25.559l0.257,-1.951Z" style="fill:#38b0d4;"/><path d="M533.623,748.846c10.114,-7.003 17.216,-8.255 16.903,-11.929c-0.821,-9.628 -13.74,14.466 -18.328,1.339c-1.533,-4.387 2.416,-3.501 12.214,-12.939c7.91,-7.619 32.858,32.239 -3.86,43.504c-1.591,-4.132 -0.588,-4.488 -5.177,-10.924c4.672,-3.433 1.795,-4.426 -1.752,-9.05Z" style="fill:#1e5ea1;"/><path d="M687.593,726.745c6.74,-4.365 124.698,-132.714 100.601,-96.943c-4.333,6.432 -35.155,36.24 -52.207,54.557c-3.56,3.824 -33.291,35.762 -45.535,46.816c-0.953,-1.477 -1.906,-2.954 -2.859,-4.43Z" style="fill:#d7d8d7;"/><path d="M421.708,564.781l-0.784,1.669c-6.464,11.575 -6.412,12.569 -23.929,18.972c-18.928,-5.138 -18.167,-6.686 -24.618,-13.622c27.19,-10.665 27.774,-8.318 49.332,-7.019Z" style="fill:#2784bd;"/><path d="M588.404,508.405c1.864,1.89 3.728,3.78 5.592,5.671c-9.648,10.292 -6.718,13.896 -35.168,28.934c-1.83,0.967 -9.619,0.393 -12.794,2.008c-14.072,7.161 -17.019,-5.357 -27.95,1.299l-2.005,-3.141c-2.602,-4.456 -2.221,-4.331 -4.486,-8.843c39.892,8.672 52.169,5.125 76.811,-25.929Z" style="fill:#2280ad;"/><path d="M702.384,636.804c2.867,0.514 2.675,0.645 5.376,0.335c2.039,1.296 4.079,2.591 6.118,3.887c-9.596,5.885 -15.289,5.925 -17.535,15.117c-1.84,0.422 -1.687,0.364 -2.816,1.601c-3.509,2.432 -25.339,25.133 -27.49,27.37c-7.182,7.469 -8.729,6.49 -10.754,15.614c-0.51,2.298 -0.914,2 -3.47,5.224c-8.06,-4.629 -8.46,-3.094 -9.047,-3.606c-0.789,-0.689 0.541,-2.443 -0.249,-3.132c38.274,-38.584 55.219,-57.283 59.865,-62.409Z" style="fill:#8e8e90;"/><path d="M391.561,374.137c19.812,30.831 39.379,33.922 76.735,25.893l2.902,4.346c-1.109,1.128 -0.29,3.318 -27.863,8.482c-11.155,-2.293 -14.586,1.379 -18.998,-3.331c-3.907,-4.171 -4.721,-2.396 -10.103,-4.404c-2.957,-3.195 -2.694,-3.275 -6.824,-5.176c-2.403,-0.893 -4.425,-0.11 -11.57,-11.316c-0.403,-0.935 -0.806,-1.869 -1.209,-2.804l-2.075,-1.419c-4.885,-8.823 -1.333,-8.916 -0.995,-10.271Z" style="fill:#4e8da8;"/><path d="M575.857,232.605c-4.885,10.66 -7.464,17.67 -0.488,25.938c-0.733,-0.156 -1.272,1.172 -2.004,1.015c-23.515,-5.013 -26.121,-27.939 -26.49,-31.192c-0.778,-6.849 21.979,-1.103 28.982,4.239Z" style="fill:#eceded;"/><path d="M499.759,439.243l5.995,4.015l-1.573,1.814c-14.159,11.081 -13.659,11.832 -30.387,17.896c-5.672,2.056 -5.696,1.05 -11.63,1.148c-0.941,0.015 -0.609,1.327 -11.564,2.14c-4.819,0.357 -6.572,-1.111 -7.184,-1.189c-2.016,-0.256 -1.847,0.061 -7.277,1.679l-0.924,-1.784c-0.991,-2.45 -1.982,-4.9 -2.973,-7.35c10.994,-2.629 30.37,11.33 63.531,-16.385c1.84,-1.537 1.946,-0.969 3.987,-1.985Z" style="fill:#2285b4;"/><path d="M544.733,468.209c0.356,2.663 1.044,2.041 5.789,5.34l-2.328,1.867c-4.65,8.473 -11.585,6.212 -13.616,14.628c-0.171,0.707 -0.664,2.751 -6.411,6.439c-3.679,2.361 -4.035,0.317 -8.427,1.711c-1.687,1.487 -0.978,1.713 -0.799,3.812c-8.047,5.492 -10.61,0.018 -13.345,4.066c-2.409,3.565 -3.19,2.197 -7.294,3.394c-4.189,1.222 -4.278,-8.283 -11.033,-5.15l-0.936,1.541l-1.649,-4.097c0.99,-0.357 1.04,-2.06 2.029,-2.417c11.508,-4.148 28.438,10.14 58.02,-31.134Z" style="fill:#2180ae;"/><path d="M642.519,699.213c0.789,0.689 -0.541,2.443 0.249,3.132c0.587,0.512 0.987,-1.023 9.047,3.606c29.895,20.177 32.983,19.769 35.778,20.793c0.953,1.477 1.906,2.954 2.859,4.43c-2.132,2.882 -0.79,3.415 -2.937,6.381c-0.293,0.405 -1.153,-0.801 -1.447,-0.396c-29.072,-14.439 -30.387,-13.459 -46.889,-35.86l3.341,-2.088Z" style="fill:#ededeb;"/><path d="M745.396,595.188c2.507,-12.895 47.954,-20.123 47.058,22.908c-2.838,-2.92 -2.713,-3.137 -3.065,-3.153c-4.615,-0.214 -1.837,-2.599 -2.905,-7.079c-6.199,-12.594 -8.114,-10.873 -13.664,-13.117l-1.69,2.554c-10.161,-2.64 -10.497,-2.457 -19.178,3.052c-3.114,-2.846 -2.702,-3.012 -6.556,-5.165Z" style="fill:#9a9a9b;"/><path d="M575.857,232.605c10.942,2.473 15.76,5.51 19.148,14.448c-2.398,6.352 -1.741,6.603 -6.322,11.476c-7.517,2.63 -11.574,0.343 -13.314,0.013c-6.976,-8.267 -4.397,-15.278 0.488,-25.938Z" style="fill:#1f252f;"/><path d="M833.309,522.941c6.338,-7.32 10.52,0.974 8.867,4.494c-9.246,19.692 -16.642,42.626 -22.849,30.3c-0.835,-1.657 -0.098,-1.587 4.142,-11.489c0.843,-1.84 7.125,-15.552 9.84,-23.304Z" style="fill:#cecece;"/><path d="M690.998,262.505c4.051,2.25 4.014,1.472 12.306,2.706l-0.696,2.127c-7.681,12.02 -5.469,12.879 -10.711,26.157c-5.29,-1.592 -10.581,-3.184 -15.871,-4.776c10.16,-11.763 11.477,-17.252 14.972,-26.213Z" style="fill:#369fcb;"/><path d="M813.612,520.413c0.296,-0.579 6.434,-18.658 12.638,-11.724c2.368,2.647 0.002,6.444 -13.674,35.633c-1.488,3.177 -2.183,4.11 -4.789,1.656c-5.61,-5.284 -3.585,-6.342 -0.513,-12.83c3.345,-6.449 3.267,-6.226 6.339,-12.735Z" style="fill:#c0bfbf;"/><path d="M742.545,595.358c0.95,-0.057 1.9,-0.113 2.85,-0.17c3.855,2.153 3.443,2.319 6.556,5.165c6.268,10.367 6.494,10.356 7.306,22.534c0.583,8.736 -6.008,9.656 -9.248,1.526c-0.255,-12.255 -8.893,-14.047 -10.782,-21.931c3.75,-6.544 3.131,-6.727 3.317,-7.124Z" style="fill:#ebebec;"/><path d="M719.36,618.469c23.791,6.506 17.564,50.926 6.834,28.832c-0.86,-4.821 0.076,-6.495 -9.803,-20.151c0.827,-4.554 2.301,-3.917 2.969,-8.681Z" style="fill:#ebebeb;"/><path d="M849.654,536.396c0.473,-0.415 5.859,-5.137 7.464,2.491c0.629,2.99 -0.853,2.619 -14.671,34.971c-1.924,4.504 -3.326,2.298 -7.102,-0.655c-4.439,-3.471 -0.629,-4.123 3.063,-10.964c5.882,-12.948 5.792,-12.743 11.246,-25.844Z" style="fill:#c3c3c2;"/><path d="M488.776,511.226c3.601,5.215 2.071,6.722 22.817,23.107c2.265,4.512 1.884,4.387 4.486,8.843c-3.565,-0.295 -3.28,-0.318 -3.565,-0.295c-13.721,1.105 -9.2,-7.75 -18.624,-13.044c-2.825,-1.587 -3.926,8.978 -10.283,4.878c1.561,-5.63 7.087,-5.034 6.103,-10.19c-1.203,-6.303 -2.693,-5.789 -2.71,-7.262c-0.04,-3.61 1.474,-5.634 1.776,-6.037Z" style="fill:#174279;"/><path d="M352.507,319.11c12.442,28.354 29.494,22.037 32.049,21.959c-0.292,7.473 -0.136,7.225 0.301,14.498c-20.29,-12.713 -22.75,-10.506 -34.966,-30.902c-0.83,-0.984 -1.661,-1.968 -2.491,-2.952l1.972,-0.96l3.135,-1.643Z" style="fill:#174b7e;"/><path d="M871.682,552.632l-1.213,1.84c-9.349,8.995 -9.27,8.76 -18.787,17.348c-2.285,-3.053 -2.607,-3.648 6.59,-23.936c4.063,-8.964 6.718,-2.548 13.41,4.749Z" style="fill:#9c9d9c;"/><path d="M734.228,313.119c-5.069,-3.68 -4.894,-3.655 -10.114,-7.343c-8.748,-6.18 -6.891,-16.641 0.704,-13.195c9.029,4.096 20.416,29.111 9.409,20.538Z" style="fill:#1b3048;"/><path d="M401.528,255.618c16.034,9.475 7.647,24.126 6.931,26.056c-1.21,-1.202 -8.062,-8.003 -10.078,-18.788c0.306,-1.888 0.612,-3.776 0.917,-5.664c0.743,-0.535 1.486,-1.07 2.229,-1.605Z" style="fill:#144c88;"/><path d="M404.418,207.672c-1.165,-0.234 -17.648,-3.539 -14.056,-4.816c1.544,-0.549 16.678,-5.927 19.838,-5.082c1.841,0.493 8.651,10.208 8.663,10.307c0.137,1.148 -0.493,1.961 -14.445,-0.409Z" style="fill:#0f2d5d;"/><path d="M849.654,536.396c-5.455,13.101 -5.364,12.896 -11.246,25.844c-5.525,-2.024 -5.814,-3.275 -3.593,-8.808c1.642,-4.09 8.148,-20.595 11.618,-19.701c1.349,0.348 1.872,2.317 3.221,2.665Z" style="fill:#a2a1a0;"/><path d="M336.455,609.808c3.384,1.859 3.424,1.768 3.655,2.008c9.752,10.129 8.475,13.249 27.994,16.361l0.021,4.823c-1.346,0.283 -2.692,0.565 -4.039,0.848c-16.137,-4.32 -14.953,-6.564 -26.867,-18.268l-0.502,-1.445l-1.325,-1.318l1.062,-3.008Z" style="fill:#1a568f;"/><path d="M541.52,807.129c-1.303,8.523 -5.152,9.456 -5.906,13.292c-2.937,2.563 -4.579,0.94 -5.458,4.734c-0.523,2.259 1.401,3.255 -1.547,8.337c-1.6,-0.63 -4.734,-1.865 -0.062,-21.491c3.01,-2.051 3.152,-1.625 12.973,-4.872Z" style="fill:#89898b;"/><path d="M408.698,764.443c6.756,-1.271 5.328,2.262 10.356,6.907c8.562,7.911 9.516,6.101 21.337,6.536c-0.015,0.558 0.43,0.488 0.616,6.956c-1.262,1.114 -1.529,1.169 -2.542,-0.198c-0.875,-1.181 -1.015,-0.787 -6.522,-2.073c-13.02,-3.042 -23.023,-13.859 -22.707,-16.711l-0.539,-1.415Z" style="fill:#174277;"/><path d="M716.391,627.151c9.879,13.656 8.943,15.33 9.803,20.151c-6.497,-2.578 -6.193,-2.826 -12.316,-6.275c-2.039,-1.296 -4.079,-2.591 -6.118,-3.887c5.034,-4.583 4.526,-4.729 8.631,-9.988Z" style="fill:#4899cd;"/><path d="M421.708,564.781l1.425,0.228l0.135,1.442c1.085,9.419 -10.885,20.126 -25.004,24.469c-0.97,-2.693 -0.987,-2.54 -1.269,-5.497c17.517,-6.403 17.465,-7.396 23.929,-18.972l0.784,-1.669Z" style="fill:#1e6b9f;"/><path d="M372.376,571.8c6.45,6.936 5.69,8.484 24.618,13.622c0.282,2.957 0.299,2.804 1.269,5.497c0.369,1.067 0.738,2.133 1.107,3.2c-3.473,-2.052 -3.327,-2.516 -4.868,-2.279c-24.902,-12.108 -22.516,-15.156 -23.212,-16.72l-1.837,-1.831l2.922,-1.489Z" style="fill:#184c7e;"/><path d="M739.229,602.482c1.89,7.884 10.528,9.676 10.782,21.931c-9.014,-5.708 -8.833,-5.615 -17.66,-11.25c2.026,-5.078 2.34,-4.751 5.789,-9.036l1.088,-1.645Z" style="fill:#3c91c4;"/><path d="M833.309,522.941c-2.714,7.752 -8.997,21.464 -9.84,23.304c-4.119,-2.2 -6.712,-1.232 -5.485,-4.269c8.21,-20.32 10.978,-18.819 15.325,-19.035Z" style="fill:#a3a3a2;"/><path d="M481.888,727.881l2.014,3.039c-9.932,9.044 -22.273,10.444 -23.211,10.154c-0.317,-0.098 -1.888,-0.584 -4.143,0.044c-6.788,-10.064 5.823,-2.774 20.025,-10.032c0.442,-0.226 0.394,-0.237 5.315,-3.205Z" style="fill:#194b81;"/><path d="M664.479,252.843l1.614,0.984l-0.257,1.951c-0.355,2.432 -2.236,15.334 -17.042,25.559c-2.027,-1.05 -2.636,0.185 -6.07,-3.566c17.652,-8.656 12.565,-13.723 21.755,-24.928Z" style="fill:#2b80b4;"/><path d="M640.221,644.506c0.143,6.839 3.611,10.212 -1.853,11.124c-7.14,1.192 -6.951,1.211 -14.241,2.482c-0.928,-2.057 -3.57,-2.188 -1.427,-3.163c1.78,-0.81 1.848,0.011 4.302,-1.633c5.849,-3.919 5.655,-3.898 11.434,-7.882l1.785,-0.927Z" style="fill:#1878a8;"/><path d="M387.143,482.189c3.339,0.569 6.678,1.138 10.017,1.708c-1.033,1.91 -3.862,7.143 -10.727,24.936c-0.926,-0.706 -1.851,-1.412 -2.777,-2.117c3.534,-7.502 3.145,-7.383 5.422,-15.554c-0.137,-1.886 1.231,-3.681 1.094,-5.567c0,-0 -2.786,-3.133 -3.028,-3.406Z" style="fill:#143a6e;"/><path d="M471.198,404.375l2.401,3.212c-11.181,6.797 -11.698,4.952 -24.456,7.913c-3.392,-0.691 -3.149,-0.775 -5.808,-2.643c27.574,-5.164 26.755,-7.354 27.863,-8.482Z" style="fill:#55a6c5;"/><path d="M813.612,520.413c-3.072,6.509 -2.994,6.286 -6.339,12.735c-1.974,-0.903 -1.722,-0.849 -4.108,-1.02c-7.194,-8.042 -1.823,-9.883 8.669,-12.3l1.778,0.585Z" style="fill:#9b9b9b;"/><path d="M595.005,247.053c2.473,2.311 2.92,1.555 4.588,4.287c4.757,7.791 -6.537,9.539 -10.91,7.189c4.582,-4.873 3.925,-5.124 6.322,-11.476Z" style="fill:#dce6eb;"/><path d="M771.13,597.3l1.69,-2.554c5.551,2.244 7.465,0.523 13.664,13.117l-2.419,1.936c-0.923,-0.721 -11.908,-11.492 -12.935,-12.499Z" style="fill:#aaaaab;"/><path d="M167.727,538.929c-5.227,-0.11 -2.109,4.577 -6.895,6.44c-0.236,0.092 0,0 -1.638,2.711c-1.677,-8.972 -0.641,-8.896 2.654,-17.549c1.097,-2.881 1.575,0.284 5.879,8.397Z" style="fill:#185789;"/><path d="M327.375,255.322c3.837,-3.803 5.253,-7.369 7.435,-2.248c0.292,0.685 5.646,2.764 5.211,3.641c-1.369,2.764 -2.312,0.679 -5.113,1.594c-4.293,1.403 -3.956,-0.403 -7.533,-2.987Z" style="fill:#1c61a5;"/><path d="M347.4,321.713c0.83,0.984 1.661,1.968 2.491,2.952c-4.652,1.643 -9.441,1.955 -10.277,2.01c-0.095,-1.006 -0.19,-2.013 -0.285,-3.019c2.69,-0.647 5.38,-1.295 8.07,-1.942Z" style="fill:#1c5492;"/><path d="M478.198,197.478c-0.335,-1.334 -0.749,-0.968 -0.633,-2.518c0.187,-2.504 0.993,-1.779 3.368,-2.59c7.996,6.463 -1.009,5.228 -2.735,5.109Z" style="fill:#195795;"/><path d="M554.66,600.727c-0.552,0.181 -3.673,1.202 -7.258,-0.223l-1.445,-0.066l-1.962,0.692c-0.282,-0.806 -0.567,-6.894 10.665,-0.403Z" style="fill:#2892c1;"/><path d="M405.77,657.445c3.203,-10.112 8.945,-0.71 6.937,-0.506c-2.307,0.235 -4.63,0.271 -6.937,0.506Z" style="fill:#1d559d;"/><path d="M394.502,591.84c1.54,-0.237 1.395,0.226 4.868,2.279l0.957,2.418c-2.764,1.727 -2.6,1.457 -2.733,1.676c-2.774,-3.989 -2.802,-3.936 -2.996,-4.309c-0.541,-1.035 0.452,-1.016 -0.096,-2.064Z" style="fill:#1c5790;"/><path d="M407.41,399.947c4.129,1.901 3.867,1.981 6.824,5.176c-1.85,-0.896 -3.7,-1.793 -5.55,-2.689l-1.273,-2.487Z" style="fill:#5499b6;"/><path d="M368.125,633l0.528,2.349c-1.522,-0.5 -3.045,-1.001 -4.567,-1.501c1.346,-0.283 2.692,-0.565 4.039,-0.848Z" style="fill:#1a619a;"/><path d="M392.556,384.408l2.075,1.419c0.403,0.935 0.806,1.869 1.209,2.804c-0.153,0.003 -3.069,2.77 -3.284,-4.223Z" style="fill:#579ab7;"/><path d="M401.812,443.36c1.446,2.328 1.139,2.286 0.569,5.031c-0.215,-0.24 -0.103,-0.251 -2.281,-3.319l1.712,-1.712Z" style="fill:#184b83;"/><path d="M519.739,498.194c0.054,0.931 1.599,1.325 1.653,2.256c0,0 -2.256,1.432 -2.452,1.556c-0.179,-2.099 -0.888,-2.326 0.799,-3.812Z" style="fill:#268cba;"/><path d="M650.112,287.111c-0.011,0.206 2.205,1.535 -0.186,3.528c-2.713,2.261 0.059,-3.275 0.186,-3.528Z" style="fill:#2067a2;"/><path d="M696.344,656.143c-0.468,2.124 -0.781,2.296 -2.816,1.601c1.129,-1.236 0.975,-1.179 2.816,-1.601Z" style="fill:#9fa2a1;"/><path d="M547.041,787.984l1.776,0.993c-0.592,-0.331 -1.184,-0.662 -1.776,-0.993Z" style="fill:#1d5c9d;"/></g></svg>